# xmcd
#
# Track frame offsets:
#	150
#	15919
#	35070
#	52732
#	70862
#	89360
#	104502
#	123255
#	138539
#	159560
#	180874
#	200532
#	219604
#	246810
#
# Disc length: 3530 seconds
#
# Revision: 0
# Processed by: cddbd v1.5.1PL0 Copyright (c) Steve Scherf et al.
# Submitted via: dBpowerAMP V4.0
#
DISCID=ba0dc80e
DTITLE=Willie Walker and The Butanes - Right Where I Belong
DYEAR=2004
DGENRE=Blues
TTITLE0=I Don't Mind At All
TTITLE1=[We Gotta] Put Out The Fire
TTITLE2=Careless
TTITLE3=No Longer For Me
TTITLE4=Right Where I Belong
TTITLE5=Give As Good As You Get
TTITLE6=Sometimes Love's Not Enough
TTITLE7=I Don't Know If I Can Make It Through
TTITLE8=Change
TTITLE9=Crying To Do
TTITLE10=I Understand
TTITLE11=Down For The Count
TTITLE12=Ain't It Funny
TTITLE13=I Feel It
EXTD=
EXTT0=
EXTT1=
EXTT2=
EXTT3=
EXTT4=
EXTT5=
EXTT6=
EXTT7=
EXTT8=
EXTT9=
EXTT10=
EXTT11=
EXTT12=
EXTT13=
PLAYORDER=
